{
  "asset": {
    "version": "2.0",
    "generator": "THREE.GLTFExporter r166"
  },
  "scenes": [
    {
      "name": "Scene",
      "nodes": [
        12
      ]
    }
  ],
  "scene": 0,
  "nodes": [
    {
      "rotation": [
        -0.28416624665260315,
        0.7269423604011536,
        0.34203389286994934,
        0.5232754945755005
      ],
      "translation": [
        1.5401132106781006,
        3.9080848693847656,
        5.254584312438965
      ],
      "name": "Light",
      "extras": {
        "name": "Light"
      },
      "extensions": {
        "KHR_lights_punctual": {
          "light": 0
        }
      }
    },
    {
      "rotation": [
        -0.20997299253940582,
        0.3857799470424652,
        0.09062844514846802,
        0.8937962055206299
      ],
      "translation": [
        7.358890056610107,
        4.958310127258301,
        6.925789833068848
      ],
      "name": "Blender_Camera",
      "extras": {
        "name": "Blender Camera"
      },
      "camera": 0
    },
    {
      "translation": [
        0.8794676661491394,
        2.620835542678833,
        2.0890891551971436
      ],
      "name": "Empty",
      "extras": {
        "name": "Empty"
      }
    },
    {
      "rotation": [
        -1.4742448684046394e-7,
        -6.652572270837709e-9,
        0.999996542930603,
        0.002621022053062916
      ],
      "translation": [
        -0.09063972532749176,
        1.129846453666687,
        -0.0654476135969162
      ],
      "scale": [
        1.0000001192092896,
        1.36372709274292,
        0.9394250512123108
      ],
      "name": "Body",
      "extras": {
        "name": "Body"
      },
      "mesh": 0
    },
    {
      "rotation": [
        -0.0018542169127613306,
        -0.7071043252944946,
        -0.7071043252944946,
        0.0018544283229857683
      ],
      "translation": [
        -0.04004639759659767,
        -0.09042739868164062,
        0.3222792148590088
      ],
      "scale": [
        1,
        0.9999998807907104,
        1
      ],
      "name": "Bone003",
      "extras": {
        "name": "Bone.003"
      },
      "children": [
        3
      ]
    },
    {
      "name": "Sphere002",
      "mesh": 1
    },
    {
      "name": "Sphere002_1",
      "mesh": 2
    },
    {
      "translation": [
        0.11402660608291626,
        -2.989895820617676,
        -1.2049803733825684
      ],
      "name": "Cylinder001",
      "extras": {
        "targetNames": [
          "eye 1",
          "blink",
          "confused"
        ],
        "name": "Cylinder.001"
      },
      "mesh": 3
    },
    {
      "rotation": [
        -0.0013925426173955202,
        0.6102549433708191,
        0.005030924454331398,
        0.7921879291534424
      ],
      "translation": [
        0.820967435836792,
        0.5792307257652283,
        0.43551191687583923
      ],
      "scale": [
        1.0000001192092896,
        1.0000001192092896,
        1.0000001192092896
      ],
      "name": "Head",
      "extras": {
        "name": "Head"
      },
      "children": [
        5,
        6,
        7
      ]
    },
    {
      "rotation": [
        -0.5579246878623962,
        -0.43602439761161804,
        0.4269884526729584,
        0.5623911023139954
      ],
      "translation": [
        -0.014349639415740967,
        -0.09206563234329224,
        -0.32093581557273865
      ],
      "scale": [
        0.9999999403953552,
        0.9999998807907104,
        0.9999999403953552
      ],
      "name": "Bone001",
      "extras": {
        "name": "Bone.001"
      },
      "children": [
        8
      ]
    },
    {
      "rotation": [
        0.7071067690849304,
        -9.806157095226808e-7,
        -9.806157095226808e-7,
        0.7071067690849304
      ],
      "translation": [
        -0.898831844329834,
        0.842376708984375,
        0.09042742848396301
      ],
      "name": "Bone002",
      "extras": {
        "name": "Bone.002"
      },
      "children": [
        4,
        9
      ]
    },
    {
      "translation": [
        1.9740781784057617,
        1.7379999160766602,
        0.31648901104927063
      ],
      "name": "Armature",
      "extras": {
        "name": "Armature"
      },
      "children": [
        10
      ]
    },
    {
      "name": "eve.glb",
      "children": [
        0,
        1,
        2,
        11
      ]
    }
  ],
  "extensions": {
    "KHR_lights_punctual": {
      "lights": [
        {
          "name": "Light",
          "color": [
            1,
            1,
            1
          ],
          "intensity": 100,
          "type": "point"
        }
      ]
    }
  },
  "cameras": [
    {
      "type": "perspective",
      "perspective": {
        "aspectRatio": 1.431786216596343,
        "yfov": 0.39959652046304894,
        "zfar": 100,
        "znear": 0.10000000149011612
      },
      "name": "PerspectiveCamera"
    }
  ],
  "bufferViews": [
    {
      "buffer": 0,
      "byteOffset": 0,
      "byteLength": 22452,
      "target": 34962,
      "byteStride": 12
    },
    {
      "buffer": 0,
      "byteOffset": 22452,
      "byteLength": 22452,
      "target": 34962,
      "byteStride": 12
    },
    {
      "buffer": 0,
      "byteOffset": 44904,
      "byteLength": 14968,
      "target": 34962,
      "byteStride": 8
    },
    {
      "buffer": 0,
      "byteOffset": 59872,
      "byteLength": 14952,
      "target": 34963
    },
    {
      "buffer": 0,
      "byteOffset": 74824,
      "byteLength": 81228,
      "target": 34962,
      "byteStride": 12
    },
    {
      "buffer": 0,
      "byteOffset": 156052,
      "byteLength": 81228,
      "target": 34962,
      "byteStride": 12
    },
    {
      "buffer": 0,
      "byteOffset": 237280,
      "byteLength": 54152,
      "target": 34962,
      "byteStride": 8
    },
    {
      "buffer": 0,
      "byteOffset": 291432,
      "byteLength": 78336,
      "target": 34963
    },
    {
      "buffer": 0,
      "byteOffset": 369768,
      "byteLength": 19308,
      "target": 34962,
      "byteStride": 12
    },
    {
      "buffer": 0,
      "byteOffset": 389076,
      "byteLength": 19308,
      "target": 34962,
      "byteStride": 12
    },
    {
      "buffer": 0,
      "byteOffset": 408384,
      "byteLength": 12872,
      "target": 34962,
      "byteStride": 8
    },
    {
      "buffer": 0,
      "byteOffset": 421256,
      "byteLength": 16896,
      "target": 34963
    },
    {
      "buffer": 0,
      "byteOffset": 438152,
      "byteLength": 17664,
      "target": 34962,
      "byteStride": 12
    },
    {
      "buffer": 0,
      "byteOffset": 455816,
      "byteLength": 17664,
      "target": 34962,
      "byteStride": 12
    },
    {
      "buffer": 0,
      "byteOffset": 473480,
      "byteLength": 11776,
      "target": 34962,
      "byteStride": 8
    },
    {
      "buffer": 0,
      "byteOffset": 485256,
      "byteLength": 17664,
      "target": 34962,
      "byteStride": 12
    },
    {
      "buffer": 0,
      "byteOffset": 502920,
      "byteLength": 17664,
      "target": 34962,
      "byteStride": 12
    },
    {
      "buffer": 0,
      "byteOffset": 520584,
      "byteLength": 17664,
      "target": 34962,
      "byteStride": 12
    },
    {
      "buffer": 0,
      "byteOffset": 538248,
      "byteLength": 17664,
      "target": 34962,
      "byteStride": 12
    },
    {
      "buffer": 0,
      "byteOffset": 555912,
      "byteLength": 17664,
      "target": 34962,
      "byteStride": 12
    },
    {
      "buffer": 0,
      "byteOffset": 573576,
      "byteLength": 17664,
      "target": 34962,
      "byteStride": 12
    },
    {
      "buffer": 0,
      "byteOffset": 591240,
      "byteLength": 4968,
      "target": 34963
    },
    {
      "buffer": 0,
      "byteOffset": 596208,
      "byteLength": 4
    },
    {
      "buffer": 0,
      "byteOffset": 596212,
      "byteLength": 12
    }
  ],
  "buffers": [
    {
      "byteLength": 596224,
      "uri": "data:application/octet-stream;base64,"
    }
  ],
  "accessors": [
    {
      "bufferView": 0,
      "componentType": 5126,
      "count": 1871,
      "max": [
        0.8802496790885925,
        1.0955824851989746,
        0.9485850930213928
      ],
      "min": [
        -1.0695151090621948,
        -0.8954989314079285,
        -0.8602558970451355
      ],
      "type": "VEC3"
    },
    {
      "bufferView": 1,
      "componentType": 5126,
      "count": 1871,
      "max": [
        0.9997616410255432,
        1,
        0.9988791346549988
      ],
      "min": [
        -0.9999628067016602,
        -0.991694450378418,
        -0.9953717589378357
      ],
      "type": "VEC3"
    },
    {
      "bufferView": 2,
      "componentType": 5126,
      "count": 1871,
      "max": [
        1.0000605583190918,
        0.9900000095367432
      ],
      "min": [
        0,
        0
      ],
      "type": "VEC2"
    },
    {
      "bufferView": 3,
      "componentType": 5123,
      "count": 7476,
      "max": [
        1870
      ],
      "min": [
        0
      ],
      "type": "SCALAR"
    },
    {
      "bufferView": 4,
      "componentType": 5126,
      "count": 6769,
      "max": [
        1.0495388507843018,
        0.6117119789123535,
        -0.14578711986541748
      ],
      "min": [
        -0.7580838799476624,
        -0.8504281044006348,
        -1.7177091836929321
      ],
      "type": "VEC3"
    },
    {
      "bufferView": 5,
      "componentType": 5126,
      "count": 6769,
      "max": [
        0.9996995329856873,
        0.9996462464332581,
        0.9944084286689758
      ],
      "min": [
        -0.9997439384460449,
        -0.9999556541442871,
        -0.9999778270721436
      ],
      "type": "VEC3"
    },
    {
      "bufferView": 6,
      "componentType": 5126,
      "count": 6769,
      "max": [
        1.0000001192092896,
        1
      ],
      "min": [
        0,
        0.1874997615814209
      ],
      "type": "VEC2"
    },
    {
      "bufferView": 7,
      "componentType": 5123,
      "count": 39168,
      "max": [
        6768
      ],
      "min": [
        0
      ],
      "type": "SCALAR"
    },
    {
      "bufferView": 8,
      "componentType": 5126,
      "count": 1609,
      "max": [
        0.7545554637908936,
        0.2400999814271927,
        -0.06252994388341904
      ],
      "min": [
        -0.5072721242904663,
        -0.6712192296981812,
        -0.2428753674030304
      ],
      "type": "VEC3"
    },
    {
      "bufferView": 9,
      "componentType": 5126,
      "count": 1609,
      "max": [
        0.40461134910583496,
        0.37490084767341614,
        0.9999622106552124
      ],
      "min": [
        -0.3601057529449463,
        -0.615286111831665,
        0.7876822352409363
      ],
      "type": "VEC3"
    },
    {
      "bufferView": 10,
      "componentType": 5126,
      "count": 1609,
      "max": [
        1.0000001192092896,
        0.18749988079071045
      ],
      "min": [
        0,
        -2.384185791015625e-7
      ],
      "type": "VEC2"
    },
    {
      "bufferView": 11,
      "componentType": 5123,
      "count": 8448,
      "max": [
        1608
      ],
      "min": [
        0
      ],
      "type": "SCALAR"
    },
    {
      "bufferView": 12,
      "componentType": 5126,
      "count": 1472,
      "max": [
        0.3833504021167755,
        2.883798360824585,
        1.1623533964157104
      ],
      "min": [
        -0.3931111693382263,
        2.6380860805511475,
        1.1093968152999878
      ],
      "type": "VEC3"
    },
    {
      "bufferView": 13,
      "componentType": 5126,
      "count": 1472,
      "max": [
        0.22199594974517822,
        1,
        0.9999691247940063
      ],
      "min": [
        -0.16590750217437744,
        -0.18260355293750763,
        0
      ],
      "type": "VEC3"
    },
    {
      "bufferView": 14,
      "componentType": 5126,
      "count": 1472,
      "max": [
        0.9900000095367432,
        0.9900000095367432
      ],
      "min": [
        0.5099999904632568,
        0.5099999904632568
      ],
      "type": "VEC2"
    },
    {
      "bufferView": 15,
      "componentType": 5126,
      "count": 1472,
      "max": [
        0.08207347989082336,
        0.14912986755371094,
        0.013465523719787598
      ],
      "min": [
        -0.08228203654289246,
        -0.024542808532714844,
        -0.014499187469482422
      ],
      "type": "VEC3"
    },
    {
      "bufferView": 16,
      "componentType": 5126,
      "count": 1472,
      "max": [
        0.36949899792671204,
        0.445497065782547,
        0.9991000294685364
      ],
      "min": [
        -0.35590797662734985,
        -1.0679999589920044,
        -1.9944788217544556
      ],
      "type": "VEC3"
    },
    {
      "bufferView": 17,
      "componentType": 5126,
      "count": 1472,
      "max": [
        0.0741015076637268,
        0.17995858192443848,
        0.01418769359588623
      ],
      "min": [
        -0.0751374363899231,
        -0.035549163818359375,
        -0.013126492500305176
      ],
      "type": "VEC3"
    },
    {
      "bufferView": 18,
      "componentType": 5126,
      "count": 1472,
      "max": [
        0.3158055543899536,
        0.8536985516548157,
        0.9952999949455261
      ],
      "min": [
        -0.4226926863193512,
        -1.0817999839782715,
        -1.997978687286377
      ],
      "type": "VEC3"
    },
    {
      "bufferView": 19,
      "componentType": 5126,
      "count": 1472,
      "max": [
        0.03445073962211609,
        0.04957723617553711,
        0.007555961608886719
      ],
      "min": [
        -0.0349295437335968,
        -0.03887319564819336,
        -0.006482362747192383
      ],
      "type": "VEC3"
    },
    {
      "bufferView": 20,
      "componentType": 5126,
      "count": 1472,
      "max": [
        0.190199077129364,
        0.09569960087537766,
        0.9980999827384949
      ],
      "min": [
        -0.3203991651535034,
        -1.0586999654769897,
        -1.9953546524047852
      ],
      "type": "VEC3"
    },
    {
      "bufferView": 21,
      "componentType": 5123,
      "count": 2484,
      "max": [
        1471
      ],
      "min": [
        0
      ],
      "type": "SCALAR"
    },
    {
      "bufferView": 22,
      "componentType": 5126,
      "count": 1,
      "max": [
        0
      ],
      "min": [
        0
      ],
      "type": "SCALAR"
    },
    {
      "bufferView": 23,
      "componentType": 5126,
      "count": 1,
      "max": [
        0.8209673762321472,
        0.5792307257652283,
        0.4355117678642273
      ],
      "min": [
        0.8209673762321472,
        0.5792307257652283,
        0.4355117678642273
      ],
      "type": "VEC3"
    }
  ],
  "materials": [
    {
      "pbrMetallicRoughness": {
        "baseColorFactor": [
          0.800000011920929,
          0.800000011920929,
          0.800000011920929,
          1
        ],
        "metallicFactor": 0,
        "roughnessFactor": 0.2883211672306061
      },
      "doubleSided": true,
      "name": "body.001"
    },
    {
      "pbrMetallicRoughness": {
        "baseColorFactor": [
          0.800000011920929,
          0.800000011920929,
          0.800000011920929,
          1
        ],
        "metallicFactor": 0,
        "roughnessFactor": 0.2883211672306061
      },
      "doubleSided": true,
      "name": "body"
    },
    {
      "pbrMetallicRoughness": {
        "baseColorFactor": [
          0.019087372347712517,
          0.019087372347712517,
          0.019087372347712517,
          1
        ],
        "metallicFactor": 0,
        "roughnessFactor": 0.5
      },
      "doubleSided": true,
      "name": "face"
    },
    {
      "pbrMetallicRoughness": {
        "baseColorFactor": [
          0.004025117494165897,
          0.0630071610212326,
          0.3563743233680725,
          1
        ],
        "metallicFactor": 0,
        "roughnessFactor": 0.5
      },
      "doubleSided": true,
      "name": "eyes"
    }
  ],
  "meshes": [
    {
      "primitives": [
        {
          "mode": 4,
          "attributes": {
            "POSITION": 0,
            "NORMAL": 1,
            "TEXCOORD_0": 2
          },
          "indices": 3,
          "material": 0
        }
      ]
    },
    {
      "primitives": [
        {
          "mode": 4,
          "attributes": {
            "POSITION": 4,
            "NORMAL": 5,
            "TEXCOORD_0": 6
          },
          "indices": 7,
          "material": 1
        }
      ]
    },
    {
      "primitives": [
        {
          "mode": 4,
          "attributes": {
            "POSITION": 8,
            "NORMAL": 9,
            "TEXCOORD_0": 10
          },
          "indices": 11,
          "material": 2
        }
      ]
    },
    {
      "weights": [
        0,
        0,
        0
      ],
      "extras": {
        "targetNames": [
          "eye 1",
          "blink",
          "confused"
        ]
      },
      "primitives": [
        {
          "mode": 4,
          "attributes": {
            "POSITION": 12,
            "NORMAL": 13,
            "TEXCOORD_0": 14
          },
          "targets": [
            {
              "POSITION": 15,
              "NORMAL": 16
            },
            {
              "POSITION": 17,
              "NORMAL": 18
            },
            {
              "POSITION": 19,
              "NORMAL": 20
            }
          ],
          "indices": 21,
          "material": 3
        }
      ]
    }
  ],
  "animations": [
    {
      "name": "SphereAction",
      "samplers": [
        {
          "input": 22,
          "output": 23,
          "interpolation": "LINEAR"
        }
      ],
      "channels": [
        {
          "sampler": 0,
          "target": {
            "node": 8,
            "path": "translation"
          }
        }
      ]
    }
  ],
  "extensionsUsed": [
    "KHR_lights_punctual"
  ]
}